<svg width="100" height="100" viewBox="0 0 100 100" fill="none" xmlns="http://www.w3.org/2000/svg">
<path d="M12 99.5L88 99.5C94.3513 99.5 99.5 94.3513 99.5 88L99.5 12C99.5 5.64872 94.3513 0.5 88 0.5L12 0.5C5.64873 0.5 0.5 5.64872 0.5 12L0.5 88C0.5 94.3513 5.64873 99.5 12 99.5Z" fill="#F7F9FF"/>
<path d="M12 99.5L88 99.5C94.3513 99.5 99.5 94.3513 99.5 88L99.5 12C99.5 5.64872 94.3513 0.5 88 0.5L12 0.5C5.64873 0.5 0.5 5.64872 0.5 12L0.5 88C0.5 94.3513 5.64873 99.5 12 99.5Z" stroke="#C1BCBC"/>
<ellipse cx="48" cy="36" rx="16" ry="6" stroke="#E4C467" stroke-width="3"/>
<path d="M38 47.6836C39.2032 48.0453 40.5487 48.3431 42 48.5634" stroke="#E4C467" stroke-width="3" stroke-linecap="round"/>
<path d="M48 56C39.1634 56 32 53.3137 32 50" stroke="#E4C467" stroke-width="3" stroke-linecap="round"/>
<path d="M38 61.6836C39.2032 62.0453 40.5487 62.3431 42 62.5634" stroke="#E4C467" stroke-width="3" stroke-linecap="round"/>
<path d="M48 70C39.1634 70 32 67.3137 32 64V36M64 36V47" stroke="#E4C467" stroke-width="3" stroke-linecap="round" stroke-linejoin="round"/>
<path d="M56.1606 69.7145L55.5521 71.0856L55.5521 71.0856L56.1606 69.7145ZM54.2664 67.6851L52.8673 68.2259L52.8673 68.226L54.2664 67.6851ZM67.7336 67.6851L69.1327 68.226L69.1327 68.2259L67.7336 67.6851ZM65.8394 69.7145L66.4479 71.0856L66.4479 71.0856L65.8394 69.7145ZM65.8394 59.0355L66.4479 57.6644V57.6644L65.8394 59.0355ZM67.7336 61.0649L69.1327 60.5241L69.1327 60.5241L67.7336 61.0649ZM56.1606 59.0355L55.5521 57.6644H55.5521L56.1606 59.0355ZM54.2664 61.0649L52.8673 60.5241V60.5241L54.2664 61.0649ZM56 58.75C56 59.5784 56.6716 60.25 57.5 60.25C58.3284 60.25 59 59.5784 59 58.75H57.5H56ZM63 58.75C63 59.5784 63.6716 60.25 64.5 60.25C65.3284 60.25 66 59.5784 66 58.75H64.5H63ZM59.25 58.75V60.25H62.75V58.75V57.25H59.25V58.75ZM62.75 70V68.5H59.25V70V71.5H62.75V70ZM59.25 70V68.5C58.4126 68.5 57.8651 68.4991 57.4443 68.4683C57.0392 68.4387 56.8676 68.3872 56.7691 68.3435L56.1606 69.7145L55.5521 71.0856C56.0968 71.3273 56.6545 71.4186 57.2256 71.4603C57.781 71.5009 58.4566 71.5 59.25 71.5V70ZM54 64.375H52.5C52.5 65.2295 52.4993 65.9405 52.5363 66.5222C52.5741 67.1155 52.6555 67.6781 52.8673 68.2259L54.2664 67.6851L55.6655 67.1442C55.6109 67.0029 55.5591 66.7841 55.5303 66.3315C55.5007 65.8673 55.5 65.2678 55.5 64.375H54ZM56.1606 69.7145L56.7691 68.3435C56.2942 68.1328 55.8855 67.7131 55.6655 67.1442L54.2664 67.6851L52.8673 68.226C53.3578 69.4947 54.3118 70.5351 55.5521 71.0856L56.1606 69.7145ZM68 64.375H66.5C66.5 65.2678 66.4993 65.8673 66.4697 66.3315C66.4409 66.7841 66.3891 67.0029 66.3345 67.1442L67.7336 67.6851L69.1327 68.2259C69.3445 67.6781 69.4259 67.1155 69.4637 66.5222C69.5007 65.9405 69.5 65.2295 69.5 64.375H68ZM62.75 70V71.5C63.5434 71.5 64.219 71.5009 64.7744 71.4603C65.3455 71.4186 65.9032 71.3273 66.4479 71.0856L65.8394 69.7145L65.2309 68.3435C65.1324 68.3872 64.9608 68.4387 64.5557 68.4683C64.1349 68.4991 63.5874 68.5 62.75 68.5V70ZM67.7336 67.6851L66.3345 67.1442C66.1145 67.7131 65.7058 68.1328 65.2309 68.3435L65.8394 69.7145L66.4479 71.0856C67.6882 70.5351 68.6422 69.4947 69.1327 68.226L67.7336 67.6851ZM62.75 58.75V60.25C63.5874 60.25 64.1349 60.2509 64.5557 60.2817C64.9608 60.3113 65.1324 60.3628 65.2309 60.4065L65.8394 59.0355L66.4479 57.6644C65.9032 57.4227 65.3455 57.3314 64.7744 57.2897C64.219 57.2491 63.5434 57.25 62.75 57.25V58.75ZM68 64.375H69.5C69.5 63.5205 69.5007 62.8095 69.4637 62.2278C69.4259 61.6345 69.3445 61.0719 69.1327 60.5241L67.7336 61.0649L66.3345 61.6058C66.3891 61.7471 66.4409 61.9659 66.4697 62.4185C66.4993 62.8827 66.5 63.4822 66.5 64.375H68ZM65.8394 59.0355L65.2309 60.4065C65.7058 60.6172 66.1145 61.0369 66.3345 61.6058L67.7336 61.0649L69.1327 60.5241C68.6422 59.2553 67.6882 58.2149 66.4479 57.6644L65.8394 59.0355ZM59.25 58.75V57.25C58.4566 57.25 57.781 57.2491 57.2256 57.2897C56.6545 57.3314 56.0968 57.4227 55.5521 57.6644L56.1606 59.0355L56.7691 60.4065C56.8676 60.3628 57.0392 60.3113 57.4443 60.2817C57.8651 60.2509 58.4126 60.25 59.25 60.25V58.75ZM54 64.375H55.5C55.5 63.4822 55.5007 62.8827 55.5303 62.4185C55.5591 61.9659 55.6109 61.7471 55.6655 61.6058L54.2664 61.0649L52.8673 60.5241C52.6555 61.0719 52.5741 61.6345 52.5363 62.2278C52.4993 62.8095 52.5 63.5205 52.5 64.375H54ZM56.1606 59.0355L55.5521 57.6644C54.3118 58.2149 53.3578 59.2553 52.8673 60.5241L54.2664 61.0649L55.6655 61.6058C55.8855 61.0369 56.2942 60.6172 56.7691 60.4065L56.1606 59.0355ZM57.5 58.75H59V55.375H57.5H56V58.75H57.5ZM64.5 55.375H63V58.75H64.5H66V55.375H64.5ZM61 52V53.5C62.1565 53.5 63 54.3904 63 55.375H64.5H66C66 52.6317 63.7095 50.5 61 50.5V52ZM57.5 55.375H59C59 54.3904 59.8435 53.5 61 53.5V52V50.5C58.2905 50.5 56 52.6317 56 55.375H57.5Z" fill="#E4C467"/>
</svg>
