<?xml version="1.0" standalone="no"?>
<!DOCTYPE svg PUBLIC "-//W3C//DTD SVG 20010904//EN"
 "http://www.w3.org/TR/2001/REC-SVG-20010904/DTD/svg10.dtd">
<svg version="1.0" xmlns="http://www.w3.org/2000/svg"
 width="1637.000000pt" height="1637.000000pt" viewBox="0 0 1637.000000 1637.000000"
 preserveAspectRatio="xMidYMid meet">

<g transform="translate(0.000000,1637.000000) scale(0.100000,-0.100000)"
fill="#000000" stroke="none">
<path d="M4254 11295 c-235 -37 -369 -117 -509 -302 -76 -101 -120 -201 -146
-335 -18 -96 -19 -176 -19 -2843 l0 -2745 445 0 445 0 0 1170 c0 929 3 1170
13 1171 6 1 235 2 507 4 316 1 500 -1 508 -8 9 -7 12 -254 12 -1173 l0 -1164
445 0 445 0 -2 3118 -3 3117 -1030 1 c-790 2 -1049 -1 -1111 -11z m1244 -873
c10 -7 12 -228 10 -1073 l-3 -1064 -515 0 -515 0 -3 1019 c-2 1016 -2 1018 19
1055 41 73 21 70 534 71 253 0 466 -4 473 -8z"/>
<path d="M6823 11294 c-3 -9 -7 -1413 -7 -3120 l-1 -3104 443 0 442 0 0 43 c1
23 1 511 1 1083 l1 1042 42 39 c44 43 355 298 396 326 40 27 61 20 140 -48 41
-36 113 -95 159 -132 120 -96 178 -150 204 -192 l22 -36 3 -1062 3 -1063 444
0 445 0 0 1139 c0 1251 2 1202 -61 1359 -16 42 -56 112 -87 155 -82 114 -286
296 -461 412 -42 28 -76 56 -76 62 0 6 64 63 143 126 268 214 413 372 472 514
67 159 63 93 67 1335 l4 1127 -33 6 c-18 3 -217 4 -443 3 l-410 -3 -5 -1030
c-4 -795 -8 -1036 -18 -1058 -25 -58 -71 -113 -133 -162 -35 -27 -109 -88
-165 -135 -56 -47 -146 -122 -200 -166 -250 -205 -352 -290 -392 -326 -23 -21
-46 -37 -51 -34 -5 3 -9 656 -10 1452 0 795 -3 1450 -7 1455 -3 5 -187 9 -435
9 -387 0 -430 -2 -436 -16z"/>
<path d="M10673 11299 c-184 -16 -305 -64 -410 -162 -141 -132 -227 -281 -263
-456 -20 -101 -21 -121 -18 -1065 l3 -961 28 -100 c37 -133 72 -203 161 -321
101 -136 178 -196 376 -293 52 -26 172 -87 265 -136 94 -49 260 -134 370 -190
457 -233 559 -286 585 -305 48 -34 87 -105 109 -199 20 -83 21 -118 21 -566 0
-528 1 -520 -65 -571 l-32 -24 -425 0 c-415 0 -426 0 -452 21 -52 41 -51 32
-56 549 l-5 485 -425 3 c-234 1 -434 0 -445 -2 -20 -5 -20 -12 -17 -638 2
-609 3 -636 24 -713 29 -109 68 -187 147 -292 77 -102 154 -168 255 -216 160
-77 88 -72 976 -72 l795 0 86 31 c170 61 282 143 386 284 58 80 87 142 117
250 l26 95 0 820 c0 904 1 881 -65 1065 -49 136 -147 279 -248 362 -29 23 -54
46 -57 49 -14 18 -249 156 -340 201 -58 28 -323 159 -589 291 -414 206 -490
247 -530 287 -92 92 -86 32 -89 818 -3 691 -3 693 19 731 41 73 28 71 494 71
468 0 456 2 493 -73 l22 -45 0 -623 -1 -624 446 0 446 0 -1 758 c0 837 0 830
-65 998 -107 276 -328 449 -615 479 -113 12 -1303 11 -1437 -1z"/>
</g>
</svg>
